HIERARCHY
ROOT Hips
{
     OFFSET 1.88212 96.90440 -13.34250
     CHANNELS 6 Xposition Yposition Zposition Zrotation Xrotation Yrotation
     JOINT Spine
     {
          OFFSET 0.00000 11.89050 0.00000
          CHANNELS 3 Zrotation Xrotation Yrotation
          JOINT Spine1
          {
               OFFSET -0.00000 25.65740 0.12766
               CHANNELS 3 Zrotation Xrotation Yrotation
               JOINT HEad
               {
                    OFFSET 0.00000 8.73416 0.01134
                    CHANNELS 3 Zrotation Xrotation Yrotation
                    End Site
                    {
                         OFFSET -0.29000 12.77420 2.51395
                    }
               }
               JOINT LeftShoulder1
               {
                    OFFSET 8.99000 -0.36225 -0.22000
                    CHANNELS 3 Zrotation Xrotation Yrotation
                    JOINT LeftArm
                    {
                         OFFSET 10.28270 -0.00338 0.32212
                         CHANNELS 3 Zrotation Xrotation Yrotation
                         JOINT LeftForeArm
                         {
                              OFFSET 32.76690 0.09914 -1.42434
                              CHANNELS 3 Zrotation Xrotation Yrotation
                              JOINT LeftHand
                              {
                                   OFFSET 27.56430 0.08536 1.02216
                                   CHANNELS 3 Zrotation Xrotation Yrotation
                                   End Site
                                   {
                                        OFFSET 16.74430 -0.60000 1.50291
                                   }
                              }
                         }
                    }
               }
               JOINT RightShoulder
               {
                    OFFSET -8.99000 -0.36225 -0.22000
                    CHANNELS 3 Zrotation Xrotation Yrotation
                    JOINT RightArm
                    {
                         OFFSET -10.28270 -0.00338 0.32212
                         CHANNELS 3 Zrotation Xrotation Yrotation
                         JOINT RightForeArm
                         {
                              OFFSET -32.89710 0.09914 -1.42434
                              CHANNELS 3 Zrotation Xrotation Yrotation
                              JOINT RightHand
                              {
                                   OFFSET -27.49210 0.08536 1.02216
                                   CHANNELS 3 Zrotation Xrotation Yrotation
                                   End Site
                                   {
                                        OFFSET -16.63120 -0.60000 1.50291
                                   }
                              }
                         }
                    }
               }
          }
     }
     JOINT LeftUpLeg
     {
          OFFSET 8.94580 -8.66707 0.10165
          CHANNELS 3 Zrotation Xrotation Yrotation
          JOINT LeftLeg
          {
               OFFSET 0.00000 -44.42270 1.37270
               CHANNELS 3 Zrotation Xrotation Yrotation
               JOINT LeftFoot
               {
                    OFFSET -0.25355 -42.09240 -1.46059
                    CHANNELS 3 Zrotation Xrotation Yrotation
                    JOINT LeftToes
                    {
                         OFFSET -0.04000 -4.41509 8.49910
                         CHANNELS 3 Zrotation Xrotation Yrotation
                         End Site
                         {
                              OFFSET 0.08000 -0.04745 9.77979
                         }
                    }
               }
          }
     }
     JOINT RightUpLeg
     {
          OFFSET -8.94580 -8.66707 0.10165
          CHANNELS 3 Zrotation Xrotation Yrotation
          JOINT RightLeg
          {
               OFFSET 0.00000 -44.42270 1.37270
               CHANNELS 3 Zrotation Xrotation Yrotation
               JOINT RightFoot
               {
                    OFFSET 0.25355 -42.09240 -1.46059
                    CHANNELS 3 Zrotation Xrotation Yrotation
                    JOINT RightToes
                    {
                         OFFSET 0.04000 -4.41509 8.49910
                         CHANNELS 3 Zrotation Xrotation Yrotation
                         End Site
                         {
                              OFFSET -0.08000 -0.13745 9.77979
                         }
                    }
               }
          }
     }
}
MOTION
Frames: 19
Frame Time: 0.01667
36.83342 85.57836 -114.37959 5.21719 -6.09774 -8.81357 -5.73189 8.12937 -1.27297 -0.01127 0.04488 0.03399 -5.99306 18.53942 0.68239 -1.75504 12.16873 9.90768 -143.84804 -65.71242 -108.82954 -49.24123 54.13854 -90.51463 6.98670 8.99722 -2.29375 16.20528 23.72180 21.19228 73.51411 -25.06626 70.43592 25.82897 50.89268 120.04770 -7.95158 6.57474 -0.49794 6.68562 -26.16644 -5.60959 -1.04387 34.99921 11.30311 27.57087 0.00033 -0.00485 -42.21104 -1.82119 -0.02844 -16.66737 0.65085 -0.14817 -3.77232 49.28579 6.68787 48.93843 -0.01760 -0.01771 -37.71418 -39.40915 -8.36129 
37.37953 86.97031 -113.83063 4.83379 -6.07353 -10.36454 -3.84120 6.02814 -1.79220 -0.00962 0.03999 0.02867 -9.35296 19.67776 5.92247 -2.94881 13.83870 10.84572 -146.10660 -65.48945 -111.56288 -49.00202 53.99510 -90.13979 4.94919 9.14636 -3.52829 15.33885 24.91825 21.38788 73.04371 -24.86708 71.05804 26.74515 49.86686 117.99204 -5.46855 26.10955 -1.17580 7.21968 -24.23676 -6.36043 -2.29410 32.70822 14.10135 28.50766 0.00050 -0.00555 -42.12446 -0.89248 0.47837 -16.90177 2.16610 0.36756 -3.66046 45.15361 7.54280 49.95386 -0.01488 -0.01529 -38.30146 -37.21220 -7.52463 
37.81540 88.15726 -113.36708 4.51545 -5.99062 -11.77302 -2.13179 4.44100 -2.03907 -0.00897 0.03629 0.02491 -12.40639 20.23265 10.62598 -3.91620 15.04203 11.43319 -148.18877 -65.20073 -114.09451 -48.84097 53.83798 -89.70343 6.50058 8.80594 -2.11523 14.56937 25.62275 21.35021 72.63772 -24.65644 71.63458 27.52105 48.87908 116.16359 -7.52523 14.55657 -1.51340 7.70926 -22.43512 -6.87552 -3.13431 30.33350 16.29417 29.26855 0.00051 -0.00578 -42.17649 0.00394 0.86757 -17.15518 3.54917 0.81485 -3.41873 41.18807 8.19755 50.82479 -0.01274 -0.01277 -39.34890 -35.04246 -7.34888 
38.15301 89.13573 -113.02615 4.25407 -5.87561 -13.04231 -0.60725 3.32535 -2.08962 -0.00888 0.03213 0.02027 -15.11852 20.30931 14.77213 -4.69782 15.83338 11.62782 -150.16267 -64.92244 -116.50162 -48.72095 53.78084 -89.33751 5.24520 8.79461 -2.81601 14.20291 25.92169 20.91547 72.04810 -24.31592 72.06547 28.01969 48.04030 114.64642 -5.50703 21.10566 -0.83167 8.15529 -20.78175 -7.17988 -3.62683 27.95071 17.96623 29.84865 0.00050 -0.00550 -42.09883 0.91280 1.26672 -17.41735 4.77536 1.19837 -3.10289 37.48989 8.72718 51.56873 -0.01081 -0.01024 -39.87917 -32.89057 -6.80854 
38.41988 89.94003 -112.76062 4.00481 -5.74583 -14.27616 0.87172 2.36669 -2.06806 -0.00313 0.01031 0.00680 -17.69437 20.18743 18.76371 -5.39438 16.50884 11.76883 -151.98215 -64.61935 -118.73162 -48.63745 53.72037 -88.94933 4.65879 8.70739 -3.01186 13.82047 26.08963 20.53022 71.52280 -24.01768 72.49216 28.45370 47.20406 113.16257 -4.55834 23.65371 -0.34693 8.59400 -19.15848 -7.41493 -3.95707 25.51052 19.44756 30.32446 0.00043 -0.00478 -41.94955 1.85807 1.63211 -17.68897 5.95301 1.57561 -2.68058 33.79309 9.18314 52.18640 -0.00831 -0.00941 -40.50426 -30.86018 -6.32228 
38.64034 90.55789 -112.59317 3.76025 -5.61382 -15.46871 2.30356 1.56219 -1.99551 -0.00351 0.00799 0.00469 -20.09854 19.87668 22.55308 -5.97752 17.06611 11.82676 -153.62874 -64.30145 -120.77253 -48.59148 53.63698 -88.54151 4.40995 8.53764 -2.92355 13.41516 26.12095 20.09363 71.09857 -23.65080 72.95293 28.79299 46.39320 111.74434 -4.18384 23.99887 0.01850 9.02472 -17.57973 -7.58865 -4.13556 23.04615 20.75119 30.70398 0.00038 -0.00416 -41.71743 2.70951 2.11569 -17.97408 7.07721 1.94417 -2.19208 30.18110 9.60695 52.71349 -0.00731 -0.00768 -41.33973 -29.17206 -5.88268 
38.82308 91.06721 -112.48938 3.51828 -5.48971 -16.61469 3.69314 1.26311 -1.77377 -0.00373 0.03577 0.01260 -22.24738 19.11409 25.86724 -6.47118 17.15470 11.70066 -154.98090 -63.97311 -122.53899 -48.59267 53.53751 -88.12573 4.35504 8.30186 -2.67939 13.03584 25.67981 19.56597 70.73632 -23.22557 73.42319 29.01536 45.64996 110.44099 -4.08862 23.16946 0.27581 9.43794 -16.04868 -7.70639 -4.17192 20.57850 21.89190 30.99528 0.00034 -0.00357 -41.40401 3.58293 2.67331 -18.27447 8.14592 2.30263 -1.67165 26.70781 10.02568 53.18590 -0.00674 -0.00632 -42.18699 -27.57758 -5.44635 
38.98528 91.37811 -112.43799 3.24609 -5.42479 -17.70975 4.69510 1.41508 -1.54882 -0.02962 0.03095 0.00297 -24.14512 18.41057 28.75785 -10.08431 17.98538 10.38131 -155.62639 -63.42240 -126.97263 -47.86008 53.72419 -87.29005 3.93466 5.37923 2.46992 10.35350 24.84945 17.04392 73.22517 -19.75589 75.20763 28.42543 44.50192 108.18905 -0.34798 20.56434 -5.13260 9.96973 -14.50824 -8.20964 -4.72265 18.16910 24.19784 31.50458 -0.00700 -0.00603 -41.53542 5.31518 -3.15903 -18.65620 9.19391 2.70409 -0.47580 23.31729 9.64293 53.13568 0.00318 0.00162 -45.27842 -27.26645 -11.24275 
39.17788 91.64642 -112.39985 2.93691 -5.42467 -18.75505 5.32204 1.96657 -1.32544 -0.02959 0.02928 0.00256 -25.85250 17.76927 31.16261 -15.75318 19.27967 8.37967 -155.16530 -63.16955 -132.49350 -46.65345 54.04920 -86.14494 4.92500 4.47923 4.05720 6.13705 23.86430 13.24685 77.36539 -14.18401 77.29671 26.92384 43.12633 105.27588 5.22900 16.71263 -12.08792 10.53568 -12.99127 -8.77683 -5.46345 15.85962 27.18749 32.18882 -0.01197 -0.00321 -41.65296 7.39385 -12.90742 -19.18377 10.22877 3.16281 1.18564 20.06689 8.65039 52.73228 0.00569 0.00971 -49.80796 -27.06724 -20.34905 
39.39344 91.85284 -112.39636 2.58531 -5.49431 -19.75181 5.46510 2.90031 -1.08486 -0.02664 0.02808 0.00182 -27.23265 17.19756 33.05477 -19.62842 19.90568 7.22461 -151.22437 -63.76493 -132.51154 -44.96019 54.51075 -84.86934 6.83745 4.95783 3.00175 1.04676 22.93197 8.50386 82.40004 -7.07632 79.01044 24.60661 41.60485 101.91339 11.98655 12.26189 -18.62891 11.15111 -11.51202 -9.40033 -6.35697 13.64650 30.77374 33.02256 -0.01747 0.00105 -41.43264 9.07855 -25.16426 -19.90069 11.25674 3.69329 3.18736 16.98204 7.15088 52.07855 0.00484 0.01745 -52.52417 -25.91364 -25.09105 
39.61806 91.98878 -112.45276 2.17314 -5.72504 -20.56933 4.00201 4.96577 -0.79107 -0.08689 0.08062 -0.00067 -27.44705 16.91269 33.27940 -18.59481 18.25757 7.24240 -145.86815 -64.79901 -127.24484 -47.96056 56.51865 -76.77107 11.64517 8.17992 -4.97338 1.99047 21.31694 8.17322 82.62622 -6.01912 78.27356 20.64999 39.30610 97.00587 9.02915 12.58900 -3.65265 11.88148 -10.17715 -10.16992 -8.30317 12.05083 36.31129 34.40696 -0.04890 0.02186 -40.66543 8.56983 -25.83244 -20.88874 12.19771 4.33781 6.59490 14.26412 3.64845 50.22635 -0.00282 0.07066 -50.93871 -23.52525 -19.90536 
39.84075 92.05425 -112.60384 1.70454 -6.10796 -21.23655 1.57915 7.89356 -0.44876 -0.08056 0.07354 -0.00636 -27.14887 17.06718 32.13915 -16.47708 15.99860 6.96998 -142.46938 -65.78576 -123.54964 -49.54000 57.62656 -72.76081 13.99206 8.90722 -8.03415 3.88931 19.00200 7.59720 82.46121 -4.68478 77.06989 15.50081 36.72270 91.60284 13.24289 10.61584 0.38580 12.70733 -8.98036 -11.04373 -9.85432 10.47886 41.17393 35.42768 -0.02381 0.02027 -39.87175 8.64286 -32.53507 -22.20023 13.06151 5.12392 10.85813 11.78562 -1.33635 47.59477 -0.03914 0.12006 -50.45957 -22.15462 -16.96549 
40.05541 92.07368 -112.88588 1.18636 -6.62892 -21.77899 -1.65582 11.50540 0.04524 -0.07091 0.06456 -0.01171 -26.18446 17.63810 29.73981 -13.42231 13.18676 6.50596 -140.73189 -66.69675 -121.23328 -49.95787 58.49633 -71.35252 15.84377 10.04873 -10.84176 6.55790 16.11607 6.88287 82.10229 -3.12356 75.73426 9.41359 33.99977 86.34013 11.85625 9.34954 15.41438 13.58530 -7.90536 -11.98930 -11.18391 9.04865 45.45118 36.20720 -0.01531 0.01348 -39.30873 8.33699 -35.37129 -23.82678 13.87810 6.06513 15.68565 9.36007 -7.45079 44.38215 -0.08743 0.16042 -48.72337 -20.85992 -10.84163 
40.26239 92.06283 -113.32523 0.63098 -7.26608 -22.21912 -5.58546 15.65313 0.80133 -0.06090 0.06014 -0.01504 -24.38256 18.58065 26.16172 -9.67212 9.89961 6.06327 -140.18739 -67.46636 -119.94737 -49.54615 59.32918 -71.50430 16.51553 10.11944 -11.29627 9.86516 12.79361 6.45944 81.64278 -1.60845 74.46236 5.50390 32.36616 84.53539 14.39159 8.90656 17.48313 14.46829 -6.94635 -12.97602 -12.39105 7.80034 49.20343 36.80508 -0.01019 0.00896 -38.64513 8.04484 -39.28944 -25.71186 14.67987 7.15867 20.89075 6.78009 -14.39114 40.63268 -0.14358 0.19211 -46.94674 -20.38999 -4.60370 
40.48223 92.04583 -113.89581 0.04971 -7.97373 -22.57854 -9.13065 19.22514 1.74037 0.02142 -0.02144 -0.00527 -22.68751 19.80231 23.02704 -6.40391 7.29263 5.74034 -140.52286 -68.07137 -119.49171 -48.56193 60.14651 -72.54144 17.14288 10.54759 -11.95848 12.74739 10.15535 6.17001 81.15552 -0.37187 73.36608 3.12935 31.17732 84.65911 13.48791 8.46427 22.29854 15.31956 -6.11350 -13.96805 -13.51314 6.74156 52.48517 37.25053 -0.00627 0.00591 -38.08272 7.53459 -41.93663 -27.76689 15.49577 8.38257 26.31658 3.84397 -21.83364 36.31192 -0.20711 0.21434 -44.56377 -20.37496 2.81386 
40.73772 92.02615 -114.54160 -0.54411 -8.69434 -22.87753 -12.26538 22.23658 2.77705 0.02668 -0.02301 -0.00346 -20.99272 21.05440 20.25788 -3.47273 5.15548 5.50658 -141.39063 -68.48528 -119.59563 -47.19137 60.91732 -74.02546 17.24011 10.42385 -11.44081 15.37726 7.99164 6.03118 80.64651 0.52732 72.46224 1.76700 30.25198 85.69612 14.77463 8.67724 20.74310 16.10837 -5.41928 -14.92482 -14.56599 5.87067 55.34394 37.54774 -0.00317 0.00356 -37.41526 6.84664 -44.56092 -29.90118 16.36028 9.70109 31.82185 0.39544 -29.38039 31.33384 -0.27738 0.22243 -41.70624 -21.01706 10.44124 
41.05597 91.99380 -115.18405 -1.12988 -9.38182 -23.12693 -14.97190 24.72085 3.82331 0.02662 -0.01987 -0.00278 -19.41671 22.32472 17.84249 -0.93400 3.50239 5.32821 -142.54642 -68.71832 -120.05430 -45.57473 61.59978 -75.70258 17.38619 10.52885 -11.24148 17.65397 6.30409 5.94249 80.16974 1.10903 71.75694 1.07507 29.46525 87.16146 14.26659 8.72978 21.82685 16.79783 -4.86312 -15.81410 -15.56015 5.18737 57.82138 37.69181 -0.00080 0.00178 -36.72057 5.92234 -46.62911 -31.88447 17.21885 11.02680 35.85807 -2.30498 -35.43038 27.53041 -0.20785 0.11138 -38.90408 -22.25560 16.79994 
41.45467 91.93359 -115.73360 -1.68626 -10.00337 -23.32949 -17.08784 26.33460 4.73802 0.02408 -0.01210 -0.00204 -18.13860 23.93431 15.86871 1.12264 2.67017 5.12151 -143.79103 -68.79343 -120.70440 -43.77345 62.15464 -77.40932 17.28716 10.32584 -10.48169 19.46981 5.39767 5.75817 79.77548 1.39343 71.24165 0.78906 28.81399 88.67977 14.98438 9.05148 19.64270 17.35484 -4.42929 -16.61545 -16.51003 4.69030 59.95298 37.67573 0.00079 0.00036 -35.92064 4.74126 -48.48677 -33.55400 17.98447 12.27121 38.87670 -4.32701 -40.25349 24.46222 -0.13890 0.05641 -36.24806 -23.61918 21.83644 
41.93568 91.83809 -116.11845 -2.19791 -10.53970 -23.48525 -18.56832 27.22356 5.40820 0.02053 -0.00463 -0.00142 -17.19474 25.76254 14.27988 2.68742 2.51874 4.85364 -144.84058 -68.73240 -121.28799 -41.80024 62.53739 -79.09512 17.22708 10.26162 -10.03333 20.79707 5.13218 5.45617 79.48869 1.44253 70.90362 0.74660 28.26227 90.11832 14.75851 9.28416 19.51030 17.76253 -4.09059 -17.31825 -17.43305 4.37429 61.77120 37.49740 0.00153 -0.00092 -35.06834 3.29174 -50.05689 -34.83278 18.59093 13.36613 41.07641 -5.76195 -44.04564 21.91688 -0.09102 0.02790 -33.77330 -24.86426 25.77858 
